<svg width="1300" height="1300" viewBox="0 0 1300 1300" fill="none" xmlns="http://www.w3.org/2000/svg">
<path d="M650 1300C290.71 1300 0 1008.86 0 650C0 290.71 291.141 0 650 0C1009.29 0 1300 291.141 1300 650C1300.43 1009.29 1009.29 1300 650 1300Z" fill="#B5E2DC"/>
<mask id="mask0_220_878" style="mask-type:alpha" maskUnits="userSpaceOnUse" x="0" y="0" width="1301" height="1300">
<path d="M650 1300C290.71 1300 0 1008.86 0 650C0 290.71 291.141 0 650 0C1009.29 0 1300 291.141 1300 650C1300.43 1009.29 1009.29 1300 650 1300Z" fill="#F7C0B5"/>
</mask>
<g mask="url(#mask0_220_878)">
<path d="M1015.73 1197.33C1012.7 1199.5 1009.23 1201.66 1006.2 1203.83C1002.73 1206 999.698 1208.16 996.231 1209.9C993.198 1211.63 990.598 1213.36 987.564 1215.1C987.131 1215.53 986.698 1215.53 986.264 1215.96C976.298 1222.03 965.898 1227.66 955.498 1232.86C952.464 1234.6 948.998 1236.33 945.964 1237.63C945.964 1237.63 945.531 1238.06 945.098 1238.06C941.631 1239.8 938.164 1241.53 934.698 1243.26C927.764 1246.73 920.398 1249.76 913.464 1252.8C909.998 1254.53 906.098 1255.83 902.631 1257.13C899.164 1258.43 895.264 1260.16 891.798 1261.46C888.331 1262.76 884.431 1264.5 880.964 1265.8C880.964 1265.8 880.964 1265.8 880.531 1265.8C877.064 1267.1 873.164 1268.4 869.698 1269.7C861.898 1272.3 853.664 1274.9 845.864 1277.5C843.264 1278.36 840.231 1279.23 837.631 1280.1C829.398 1282.7 821.164 1284.86 812.931 1286.6C809.898 1287.46 806.864 1287.9 803.398 1288.76C795.598 1290.5 787.364 1292.23 779.564 1293.96C777.831 1294.4 776.531 1294.4 774.798 1294.83C772.198 1295.26 769.164 1295.7 766.564 1296.13C762.664 1296.56 759.198 1297.43 755.298 1297.86C753.564 1298.3 751.831 1298.3 750.098 1298.73C747.931 1299.16 745.331 1299.6 742.731 1299.6C735.798 1300.46 728.431 1301.33 721.498 1302.2C719.331 1302.63 716.731 1302.63 714.564 1303.06H714.131C711.098 1303.5 708.064 1303.5 705.031 1303.93C701.998 1304.36 698.964 1304.36 695.931 1304.36C694.198 1304.36 692.031 1304.8 690.298 1304.8C686.831 1304.8 683.798 1305.23 680.764 1305.23C676.431 1305.23 672.531 1305.66 668.198 1305.66C663.864 1305.66 659.964 1305.66 655.631 1305.66C652.598 1305.66 649.564 1305.66 646.531 1305.66C464.098 1303.06 299.431 1225.5 182.431 1102.43C182.431 1102.43 182.431 1102 181.998 1102C195.431 1075.56 245.264 1027.9 297.264 988.465C363.131 938.632 456.298 907.865 456.298 907.865C456.298 907.865 517.398 897.898 744.031 945.132C916.931 981.532 990.598 1129.3 1015.73 1197.33Z" fill="#FEE4BF"/>
<path d="M792.131 1065.16C783.031 1109.8 724.098 1136.23 624.865 1096.36C503.098 1046.96 456.298 907.865 456.298 907.865C449.798 808.198 434.631 722.832 434.631 722.832C575.465 710.698 741.865 875.365 741.865 875.365L760.931 956.832C762.665 963.765 766.131 969.832 771.331 974.165C780.431 989.765 798.198 1036.56 792.131 1065.16Z" fill="#FEE4BF"/>
<path d="M771.331 974.599C688.564 970.265 627.464 958.132 562.031 840.699C617.497 889.665 682.931 908.299 751.831 916.965L760.931 956.832C762.664 964.199 766.131 970.265 771.331 974.599Z" fill="#EFBDA5"/>
<path d="M942.498 452.432C950.298 488.832 954.198 518.298 932.964 615.365C911.731 712.432 952.464 809.498 850.198 898.332C781.298 958.132 660.831 969.398 564.631 903.965C532.131 881.865 502.231 851.098 477.964 810.798C458.898 779.165 436.798 749.265 412.098 721.965C377.864 684.698 336.698 609.732 357.064 477.132C389.998 261.332 603.631 236.632 729.731 260.465C855.831 284.298 921.264 356.232 942.498 452.432Z" fill="#FEE4BF"/>
<path d="M527.797 621.865C527.797 621.865 514.364 556.865 451.097 564.665C396.497 571.598 377.431 702.465 501.364 738.865" fill="#FEE4BF"/>
<path d="M497.465 679.498C497.465 679.498 481.865 669.532 483.598 652.198C486.198 631.832 483.598 619.265 474.065 615.365C450.231 605.398 445.465 633.132 446.331 636.598" stroke="#423232" stroke-width="13" stroke-miterlimit="10" stroke-linecap="round" stroke-linejoin="round"/>
<path d="M828.097 721.532C828.097 721.532 844.564 722.398 860.164 703.765C868.831 693.365 876.197 680.365 871.431 676.465C866.664 672.132 788.231 684.265 783.031 694.665C777.831 705.065 808.164 721.532 828.097 721.532Z" fill="#EFBDA5"/>
<path d="M841.098 575.932C841.098 575.932 841.965 617.098 868.398 663.032C880.098 683.398 862.331 716.765 823.765 722.398" stroke="#423232" stroke-width="13" stroke-miterlimit="10" stroke-linecap="round" stroke-linejoin="round"/>
<path opacity="0.42" d="M606.231 743.632C630.882 743.632 650.865 727.141 650.865 706.799C650.865 686.456 630.882 669.965 606.231 669.965C581.581 669.965 561.598 686.456 561.598 706.799C561.598 727.141 581.581 743.632 606.231 743.632Z" fill="#F2A5B2"/>
<path opacity="0.42" d="M926.031 670.832C924.731 695.098 925.164 718.932 923.431 742.765C904.364 738.432 890.498 724.132 890.498 707.232C890.498 689.032 905.664 674.298 926.031 670.832Z" fill="#F2A5B2"/>
<path d="M905.232 1030.03C872.299 1000.13 828.966 965.034 758.766 946.834C681.199 926.467 640.899 970.234 578.932 964.167C545.566 960.7 490.966 895.7 454.132 905.233C408.632 917.367 358.366 941.634 297.699 983.667C284.699 992.767 173.332 1067.3 134.766 1189.07C99.6657 1299.13 90.999 1450.8 90.1323 1501.07H1077.27C1077.7 1189.93 939.466 1061.23 905.232 1030.03Z" fill="#F4C4DB"/>
<path d="M439.832 956.367C439.832 956.367 431.599 884.434 438.965 861.467C439.832 858.434 448.932 853.234 448.932 853.234C448.932 853.234 448.932 893.534 546.432 921.267C649.132 950.3 763.532 941.634 784.765 932.534C784.765 932.534 785.199 992.334 773.932 1014.87C756.599 1049.53 618.799 1042.17 535.165 1013.57C461.932 988.434 439.832 956.367 439.832 956.367Z" fill="#F4C4DB"/>
<g opacity="0.25">
<g opacity="0.25">
<g opacity="0.25">
<g opacity="0.25">
<path opacity="0.25" d="M36.3994 1010.97C124.366 962.434 112.666 1012.7 240.499 988C295.099 977.6 356.633 929.934 435.066 926.467C494.866 923.867 561.166 963.734 634.833 968.934C696.366 973.267 767.433 941.634 838.499 953.334C900.466 963.3 957.666 1015.3 1027 1032.2" stroke="#6D5F5E" stroke-width="21.7052" stroke-miterlimit="10" stroke-linecap="round" stroke-linejoin="round"/>
</g>
<g opacity="0.25">
<path opacity="0.25" d="M38.1323 1060.37C133.032 1020.93 117.866 1070.77 247.866 1049.53C304.632 1040.43 368.766 992.334 448.066 988.867C510.032 986.267 578.066 1026.57 653.032 1030.47C716.732 1033.93 788.666 999.7 861.032 1009.67C925.166 1018.33 985.399 1070.33 1056.03 1085.5" stroke="#6D5F5E" stroke-width="21.7052" stroke-miterlimit="10" stroke-linecap="round" stroke-linejoin="round"/>
</g>
<g opacity="0.25">
<path opacity="0.25" d="M39.8665 1109.77C140.4 1078.57 122.2 1127.53 254.8 1110.2C313.3 1102.4 380.033 1054.3 460.633 1050.83C524.333 1048.23 594.966 1089.4 670.8 1092.43C736.666 1095.03 809.466 1058.2 883.566 1066.43C949.866 1073.8 1013.13 1125.37 1085.5 1138.37" stroke="#6D5F5E" stroke-width="21.7052" stroke-miterlimit="10" stroke-linecap="round" stroke-linejoin="round"/>
</g>
<g opacity="0.25">
<path opacity="0.25" d="M41.5994 1159.17C146.899 1135.77 126.533 1183.87 261.733 1170C322.399 1163.5 391.733 1115.4 473.633 1112.37C539.499 1109.77 611.866 1152.23 689.433 1153.97C757.466 1155.7 831.566 1116.7 906.966 1123.2C975.866 1129.27 1042.17 1179.97 1115.83 1191.23" stroke="#6D5F5E" stroke-width="21.7052" stroke-miterlimit="10" stroke-linecap="round" stroke-linejoin="round"/>
</g>
<g opacity="0.25">
<path opacity="0.25" d="M42.8994 1209C152.099 1192.1 129.999 1240.2 267.366 1229.37C330.199 1224.6 402.133 1176.07 485.333 1173.47C553.366 1171.3 627.899 1214.63 706.333 1215.93C776.533 1216.8 851.933 1175.63 928.633 1180.4C999.699 1184.73 1069.47 1235 1144.87 1243.67" stroke="#6D5F5E" stroke-width="21.7052" stroke-miterlimit="10" stroke-linecap="round" stroke-linejoin="round"/>
</g>
<g opacity="0.25">
<path opacity="0.25" d="M43.7659 1258.83C156.433 1248 133.033 1295.67 272.566 1288.3C337.566 1284.83 412.099 1236.73 497.033 1235C567.233 1233.27 643.499 1277.9 723.666 1278.33C796.033 1278.77 873.166 1235 950.732 1238.47C1024.83 1241.5 1097.63 1290.9 1173.9 1296.53" stroke="#6D5F5E" stroke-width="21.7052" stroke-miterlimit="10" stroke-linecap="round" stroke-linejoin="round"/>
</g>
<g opacity="0.25">
<path opacity="0.25" d="M45.0662 1309.1C160.766 1303.9 136.066 1351.13 278.633 1347.23C345.366 1345.5 422.933 1297.4 509.599 1296.1C581.966 1295.23 660.399 1340.73 741.866 1340.73C816.833 1340.73 895.266 1295.23 974.133 1296.53C1050.83 1297.83 1127.1 1346.37 1204.67 1349.4" stroke="#6D5F5E" stroke-width="21.7052" stroke-miterlimit="10" stroke-linecap="round" stroke-linejoin="round"/>
</g>
</g>
</g>
</g>
<path d="M315.466 975C332.366 994.067 401.699 1076.83 426.399 1170.43L482.299 1179.53C482.299 1179.53 422.499 1030.47 340.166 957.667C336.699 954.634 331.499 954.2 327.166 955.934C323.699 957.667 319.366 960.7 315.466 965.9C312.866 968.934 313.299 972.834 315.466 975Z" fill="#423232"/>
<path d="M844.566 1150.93C844.566 1150.93 851.933 1039.13 796.033 960.267C796.033 960.267 799.5 956.8 819 966.334C832.866 972.834 873.6 1028.73 877.5 1141.83C877.933 1141.83 849.333 1151.37 844.566 1150.93Z" fill="#423232"/>
<path d="M413.399 1092.87C413.399 1092.87 733.633 1178.23 871.866 1083.77C871.866 1083.77 943.799 1225.47 971.966 1501.07H354.899C354.899 1501.07 405.166 1434.77 413.399 1092.87Z" fill="#423232"/>
<path d="M471.899 1198.6C483.387 1198.6 492.699 1189.29 492.699 1177.8C492.699 1166.31 483.387 1157 471.899 1157C460.412 1157 451.099 1166.31 451.099 1177.8C451.099 1189.29 460.412 1198.6 471.899 1198.6Z" fill="white"/>
<path d="M856.7 1165.67C866.752 1165.67 874.9 1157.52 874.9 1147.47C874.9 1137.42 866.752 1129.27 856.7 1129.27C846.648 1129.27 838.5 1137.42 838.5 1147.47C838.5 1157.52 846.648 1165.67 856.7 1165.67Z" fill="white"/>
<path d="M683.943 619.439C673.543 619.006 665.743 610.339 666.61 599.939L667.043 587.806C667.476 577.406 676.143 569.606 686.543 570.473C696.943 570.906 704.743 579.573 703.876 589.973L703.443 602.106C703.01 612.073 694.343 619.873 683.943 619.439Z" fill="#423232"/>
<path d="M866.375 625.939C856.842 625.506 849.475 617.272 849.909 607.739L850.342 596.472C850.775 586.939 859.009 579.572 868.542 580.006C878.075 580.439 885.442 588.672 885.009 598.206L884.575 609.472C884.142 619.006 875.909 626.372 866.375 625.939Z" fill="#423232"/>
<path d="M725.977 594.306C725.977 594.306 714.71 578.273 695.21 575.239C679.177 572.639 661.41 580.439 658.81 589.539" stroke="#423232" stroke-width="13" stroke-miterlimit="10" stroke-linecap="round" stroke-linejoin="round"/>
<path d="M853.809 598.206C853.809 598.206 853.809 584.339 873.743 584.339C890.209 584.339 897.143 599.506 897.143 599.506" stroke="#423232" stroke-width="13" stroke-miterlimit="10" stroke-linecap="round" stroke-linejoin="round"/>
<path d="M743.743 524.539C752.843 527.573 761.943 519.339 760.209 509.373C759.343 504.173 757.176 498.973 752.843 495.073C739.843 483.373 686.109 472.973 653.609 488.139C625.009 502.006 702.143 510.673 743.743 524.539Z" fill="#423232"/>
<path d="M873.308 531.473C865.941 534.073 858.141 526.273 859.441 517.173C859.874 512.406 861.608 507.639 865.074 504.173C875.474 493.773 911.008 485.539 933.541 501.573C953.041 515.006 907.108 518.906 873.308 531.473Z" fill="#423232"/>
<path d="M793.697 770.764C768.997 785.497 725.231 769.464 704.864 744.764" stroke="#423232" stroke-width="13" stroke-miterlimit="10" stroke-linecap="round" stroke-linejoin="round"/>
<path d="M940.303 574.422C952.003 508.555 948.536 482.555 941.603 451.788C939.436 442.255 936.836 433.155 933.803 424.055C910.836 405.855 886.569 394.155 849.736 388.955C750.503 375.522 672.069 384.622 588.436 402.822C536.003 414.088 546.836 595.222 526.469 619.055C523.003 606.922 506.103 557.522 450.636 564.455C398.203 570.955 378.269 692.288 486.603 733.888C485.736 757.722 463.636 801.922 445.869 811.888C445.869 811.888 442.836 780.255 408.169 738.655C373.503 697.055 304.169 589.155 350.969 431.422C397.769 273.688 609.669 191.355 806.836 271.522C840.636 285.388 868.369 304.888 890.469 325.255C942.469 372.922 970.203 442.255 961.969 512.022C959.803 535.422 953.303 557.955 940.303 574.422Z" fill="#423232"/>
<path d="M872.703 377.255C872.703 377.255 744.869 573.122 506.536 512.455C506.536 512.455 460.169 395.889 561.136 351.255C662.536 307.055 848.436 338.255 872.703 377.255Z" fill="#423232"/>
<path d="M859.269 379.855C859.269 379.855 875.736 425.355 908.236 462.189C929.469 486.022 957.202 505.955 991.869 506.822C991.869 506.822 1002.7 388.955 925.569 343.022C848.436 296.655 859.269 379.855 859.269 379.855Z" fill="#423232"/>
<path d="M542.502 304.888C542.502 304.888 402.969 87.7885 280.336 245.089C157.702 402.388 291.602 813.189 217.069 936.689C217.069 936.689 302.436 874.722 324.969 753.388C324.969 753.388 327.569 803.655 312.402 873.855C312.402 873.855 402.969 769.422 402.969 644.188C402.969 518.955 493.535 336.955 542.502 304.888Z" fill="#423232"/>
<path d="M948.102 549.288C963.702 615.588 948.102 730.422 948.102 730.422C948.102 730.422 1138.77 427.522 984.502 312.688C854.502 215.622 574.135 314.422 574.135 314.422C574.135 314.422 837.169 251.155 888.302 372.055C935.102 481.255 940.302 443.555 955.035 508.555C957.202 515.055 945.935 540.188 948.102 549.288Z" fill="#423232"/>
<path opacity="0.6" d="M865.083 677.253C865.083 677.253 870.283 706.72 904.516 721.453C913.183 724.92 922.283 719.287 922.283 709.753C921.849 709.753 867.249 680.72 865.083 677.253Z" fill="#B7AEA9"/>
<path opacity="0.6" d="M782.75 606.187C782.75 606.187 810.483 578.453 824.35 575.42L787.516 584.087L782.75 606.187Z" fill="#B7AEA9"/>
<path opacity="0.6" d="M597.716 677.254C597.716 677.254 613.75 713.654 661.85 722.32C709.95 731.42 753.716 696.754 774.083 638.687C774.083 638.687 757.616 692.42 691.75 702.387C626.316 713.22 597.716 677.254 597.716 677.254Z" fill="#B7AEA9"/>
<path opacity="0.29" d="M675.283 482.687C614.183 482.687 564.349 533.82 563.916 596.22C563.916 625.687 574.749 652.554 592.516 672.054L749.816 513.02C730.316 493.954 704.316 482.687 675.283 482.687Z" fill="#F7E1D6"/>
<path opacity="0.23" d="M749.817 513.02L592.517 672.054C612.45 694.154 640.617 707.587 671.817 707.587C732.05 707.587 781.45 657.754 783.183 595.787C784.05 563.287 771.05 533.82 749.817 513.02Z" fill="#CAE8EA"/>
<path opacity="0.29" d="M928.783 482.687C882.416 482.687 843.416 533.82 841.683 596.22C840.816 621.354 846.449 644.32 855.983 662.954L993.349 526.887C979.049 500.02 955.649 482.687 928.783 482.687Z" fill="#F7E1D6"/>
<path opacity="0.23" d="M993.349 526.453L855.982 662.52C870.282 689.82 893.682 707.586 920.982 707.586C966.482 707.586 1005.48 657.753 1008.08 595.786C1008.95 570.22 1003.32 545.953 993.349 526.453Z" fill="#CAE8EA"/>
<path d="M783.182 596.22C781.882 658.187 732.049 708.02 671.816 708.02C611.582 708.02 563.482 658.187 563.482 596.22C563.916 533.82 613.749 482.687 674.849 482.687C735.949 482.687 784.916 533.82 783.182 596.22Z" stroke="#F2B926" stroke-width="13" stroke-miterlimit="10" stroke-linecap="round" stroke-linejoin="round"/>
<path d="M1008.08 596.22C1005.48 658.187 966.483 708.02 920.983 708.02C875.483 708.02 839.949 658.187 841.683 596.22C843.416 533.82 882.416 482.687 928.783 482.687C975.149 482.687 1010.68 533.82 1008.08 596.22Z" stroke="#F2B926" stroke-width="13" stroke-miterlimit="10" stroke-linecap="round" stroke-linejoin="round"/>
<path d="M564.783 584.087H503.25" stroke="#F2B926" stroke-width="13" stroke-miterlimit="10" stroke-linecap="round" stroke-linejoin="round"/>
<path d="M783.616 584.087C783.616 584.087 835.182 564.153 841.682 584.087" stroke="#F2B926" stroke-width="13" stroke-miterlimit="10" stroke-linecap="round" stroke-linejoin="round"/>
</g>
</svg>
